<svg xmlns="http://www.w3.org/2000/svg" viewBox="0 0 180.19 48.34"><defs><style>.cls-1{fill:#fff;stroke:#000;stroke-miterlimit:10;}.cls-2{font-size:40px;font-family:IM_FELL_DW_Pica_SC, IM FELL DW Pica SC;}.cls-3{letter-spacing:0em;}.cls-4{letter-spacing:0em;}</style></defs><g id="Layer_2" data-name="Layer 2"><g id="Layer_1-2" data-name="Layer 1"><rect class="cls-1" x="5.05" y="6.07" width="20.97" height="20.97" transform="translate(-7.16 15.83) rotate(-45)"/><rect class="cls-1" x="12" y="23.06" width="6.99" height="6.99" transform="translate(-14.24 18.74) rotate(-45)"/><polygon class="cls-1" points="11.1 26.62 15.21 30.69 15.21 22.55 11.1 26.62"/><polygon class="cls-1" points="19.81 26.56 15.7 22.49 15.7 30.63 19.81 26.56"/><rect class="cls-1" x="21.89" y="13.24" width="6.99" height="6.99" transform="translate(-4.4 22.85) rotate(-45)"/><polygon class="cls-1" points="20.98 16.8 25.09 20.87 25.09 12.73 20.98 16.8"/><polygon class="cls-1" points="29.7 16.73 25.59 12.66 25.59 20.8 29.7 16.73"/><rect class="cls-1" x="16.94" y="18.18" width="6.99" height="6.99" transform="translate(-9.34 20.8) rotate(-45)"/><polygon class="cls-1" points="16.04 21.74 20.15 25.81 20.15 17.67 16.04 21.74"/><polygon class="cls-1" points="24.76 21.68 20.64 17.61 20.64 25.75 24.76 21.68"/><rect class="cls-1" x="7.26" y="17.8" width="6.99" height="6.99" transform="translate(-11.91 13.85) rotate(-45)"/><polygon class="cls-1" points="6.36 21.36 10.47 25.43 10.47 17.29 6.36 21.36"/><polygon class="cls-1" points="15.08 21.3 10.96 17.23 10.96 25.37 15.08 21.3"/><rect class="cls-1" x="17.15" y="7.98" width="6.99" height="6.99" transform="translate(-2.07 17.96) rotate(-45)"/><polygon class="cls-1" points="16.24 11.54 20.36 15.61 20.36 7.47 16.24 11.54"/><polygon class="cls-1" points="24.96 11.48 20.85 7.41 20.85 15.55 24.96 11.48"/><rect class="cls-1" x="12.21" y="12.93" width="6.99" height="6.99" transform="translate(-7.01 15.91) rotate(-45)"/><polygon class="cls-1" points="11.3 16.48 15.41 20.55 15.41 12.41 11.3 16.48"/><polygon class="cls-1" points="20.02 16.42 15.91 12.35 15.91 20.49 20.02 16.42"/><rect class="cls-1" x="2.53" y="12.89" width="6.99" height="6.99" transform="translate(-9.82 9.06) rotate(-45)"/><polygon class="cls-1" points="1.62 16.45 5.73 20.52 5.73 12.38 1.62 16.45"/><polygon class="cls-1" points="10.34 16.39 6.23 12.32 6.23 20.46 10.34 16.39"/><rect class="cls-1" x="12.41" y="3.07" width="6.99" height="6.99" transform="translate(0.02 13.17) rotate(-45)"/><polygon class="cls-1" points="11.51 6.63 15.62 10.7 15.62 2.56 11.51 6.63"/><polygon class="cls-1" points="20.22 6.57 16.11 2.5 16.11 10.64 20.22 6.57"/><rect class="cls-1" x="7.47" y="8.01" width="6.99" height="6.99" transform="translate(-4.93 11.12) rotate(-45)"/><polygon class="cls-1" points="6.56 11.57 10.68 15.64 10.68 7.5 6.56 11.57"/><polygon class="cls-1" points="15.28 11.51 11.17 7.44 11.17 15.58 15.28 11.51"/><rect class="cls-1" x="21.39" y="22.2" width="20.97" height="20.97" transform="translate(-13.78 32.11) rotate(-45)"/><rect class="cls-1" x="28.34" y="39.19" width="6.99" height="6.99" transform="translate(-20.86 35.01) rotate(-45)"/><polygon class="cls-1" points="27.44 42.75 31.55 46.82 31.55 38.68 27.44 42.75"/><polygon class="cls-1" points="36.15 42.69 32.04 38.62 32.04 46.76 36.15 42.69"/><rect class="cls-1" x="38.23" y="29.37" width="6.99" height="6.99" transform="translate(-11.02 39.13) rotate(-45)"/><polygon class="cls-1" points="37.32 32.93 41.43 37 41.43 28.86 37.32 32.93"/><polygon class="cls-1" points="46.04 32.87 41.93 28.8 41.93 36.94 46.04 32.87"/><rect class="cls-1" x="33.28" y="34.31" width="6.99" height="6.99" transform="translate(-15.96 37.08) rotate(-45)"/><polygon class="cls-1" points="32.38 37.87 36.49 41.94 36.49 33.8 32.38 37.87"/><polygon class="cls-1" points="41.1 37.81 36.98 33.74 36.98 41.88 41.1 37.81"/><rect class="cls-1" x="23.6" y="33.93" width="6.99" height="6.99" transform="translate(-18.53 30.12) rotate(-45)"/><polygon class="cls-1" points="22.7 37.49 26.81 41.56 26.81 33.42 22.7 37.49"/><polygon class="cls-1" points="31.42 37.43 27.3 33.36 27.3 41.5 31.42 37.43"/><rect class="cls-1" x="33.49" y="24.11" width="6.99" height="6.99" transform="translate(-8.69 34.24) rotate(-45)"/><polygon class="cls-1" points="32.58 27.67 36.7 31.74 36.7 23.6 32.58 27.67"/><polygon class="cls-1" points="41.3 27.61 37.19 23.54 37.19 31.68 41.3 27.61"/><rect class="cls-1" x="28.55" y="29.06" width="6.99" height="6.99" transform="translate(-13.63 32.19) rotate(-45)"/><polygon class="cls-1" points="27.64 32.62 31.75 36.69 31.75 28.55 27.64 32.62"/><polygon class="cls-1" points="36.36 32.55 32.25 28.48 32.25 36.62 36.36 32.55"/><rect class="cls-1" x="18.87" y="29.02" width="6.99" height="6.99" transform="translate(-16.44 25.34) rotate(-45)"/><polygon class="cls-1" points="17.96 32.58 22.07 36.65 22.07 28.51 17.96 32.58"/><polygon class="cls-1" points="26.68 32.52 22.57 28.45 22.57 36.59 26.68 32.52"/><rect class="cls-1" x="28.75" y="19.2" width="6.99" height="6.99" transform="translate(-6.6 29.45) rotate(-45)"/><polygon class="cls-1" points="27.85 22.76 31.96 26.83 31.96 18.69 27.85 22.76"/><polygon class="cls-1" points="36.56 22.7 32.45 18.63 32.45 26.77 36.56 22.7"/><rect class="cls-1" x="23.81" y="24.14" width="6.99" height="6.99" transform="translate(-11.55 27.4) rotate(-45)"/><polygon class="cls-1" points="22.9 27.7 27.02 31.77 27.02 23.64 22.9 27.7"/><polygon class="cls-1" points="31.62 27.64 27.51 23.57 27.51 31.71 31.62 27.64"/><rect class="cls-1" x="38.17" y="5.15" width="20.97" height="20.97" transform="translate(3.19 38.98) rotate(-45)"/><rect class="cls-1" x="45.12" y="22.14" width="6.99" height="6.99" transform="translate(-3.89 41.88) rotate(-45)"/><polygon class="cls-1" points="44.21 25.7 48.32 29.77 48.32 21.63 44.21 25.7"/><polygon class="cls-1" points="52.93 25.64 48.82 21.57 48.82 29.71 52.93 25.64"/><rect class="cls-1" x="55" y="12.32" width="6.99" height="6.99" transform="translate(5.95 46) rotate(-45)"/><polygon class="cls-1" points="54.1 15.88 58.21 19.95 58.21 11.81 54.1 15.88"/><polygon class="cls-1" points="62.82 15.82 58.7 11.75 58.7 19.89 62.82 15.82"/><rect class="cls-1" x="50.06" y="17.27" width="6.99" height="6.99" transform="translate(1.01 43.95) rotate(-45)"/><polygon class="cls-1" points="49.16 20.82 53.27 24.89 53.27 16.75 49.16 20.82"/><polygon class="cls-1" points="57.87 20.76 53.76 16.69 53.76 24.83 57.87 20.76"/><rect class="cls-1" x="40.38" y="16.89" width="6.99" height="6.99" transform="translate(-1.56 36.99) rotate(-45)"/><polygon class="cls-1" points="39.47 20.45 43.59 24.52 43.59 16.38 39.47 20.45"/><polygon class="cls-1" points="48.19 20.38 44.08 16.31 44.08 24.45 48.19 20.38"/><rect class="cls-1" x="50.27" y="7.07" width="6.99" height="6.99" transform="translate(8.28 41.11) rotate(-45)"/><polygon class="cls-1" points="49.36 10.63 53.47 14.7 53.47 6.55 49.36 10.63"/><polygon class="cls-1" points="58.08 10.56 53.97 6.49 53.97 14.63 58.08 10.56"/><rect class="cls-1" x="45.32" y="12.01" width="6.99" height="6.99" transform="translate(3.34 39.06) rotate(-45)"/><polygon class="cls-1" points="44.42 15.57 48.53 19.64 48.53 11.5 44.42 15.57"/><polygon class="cls-1" points="53.13 15.5 49.02 11.43 49.02 19.57 53.13 15.5"/><rect class="cls-1" x="35.64" y="11.98" width="6.99" height="6.99" transform="translate(0.52 32.21) rotate(-45)"/><polygon class="cls-1" points="34.74 15.54 38.85 19.61 38.85 11.47 34.74 15.54"/><polygon class="cls-1" points="43.45 15.47 39.34 11.4 39.34 19.54 43.45 15.47"/><rect class="cls-1" x="45.53" y="2.15" width="6.99" height="6.99" transform="translate(10.36 36.32) rotate(-45)"/><polygon class="cls-1" points="44.62 5.71 48.73 9.78 48.73 1.64 44.62 5.71"/><polygon class="cls-1" points="53.34 5.65 49.23 1.58 49.23 9.72 53.34 5.65"/><rect class="cls-1" x="40.59" y="7.1" width="6.99" height="6.99" transform="translate(5.42 34.27) rotate(-45)"/><polygon class="cls-1" points="39.68 10.66 43.79 14.73 43.79 6.59 39.68 10.66"/><polygon class="cls-1" points="48.4 10.59 44.29 6.52 44.29 14.66 48.4 10.59"/><text class="cls-2" transform="translate(75.85 36.34)"><tspan class="cls-3">j</tspan><tspan class="cls-4" x="11.54" y="0">o</tspan><tspan x="31.41" y="0">bber</tspan></text></g></g></svg>