<?xml version="1.0" encoding="utf-8"?>
<!-- Generator: Adobe Illustrator 25.0.0, SVG Export Plug-In . SVG Version: 6.00 Build 0)  -->
<svg version="1.1" id="b692d93a-f629-4531-a33b-6f799117a7ad"
	 xmlns="http://www.w3.org/2000/svg" xmlns:xlink="http://www.w3.org/1999/xlink" x="0px" y="0px" viewBox="0 0 896 630"
	 style="enable-background:new 0 0 896 630;" xml:space="preserve">
<style type="text/css">
	.st0{fill:#E6E6E6;}
	.st1{fill:#FFFFFF;}
	.st2{fill:#6C63FF;}
	.st3{fill:#3F3D56;}
	.st4{fill:#FBBEBE;}
	.st5{fill:#2F2E41;}
</style>
<rect x="62.5" y="10.6" class="st0" width="462" height="605"/>
<rect x="90" y="42" class="st1" width="407" height="110"/>
<rect x="242.9" y="189.4" class="st1" width="253" height="396"/>
<rect x="262.9" y="83.1" class="st0" width="102.8" height="7.7"/>
<rect x="249.1" y="103.2" class="st0" width="129.3" height="7.7"/>
<rect x="313.5" y="280.8" class="st0" width="102.8" height="7.7"/>
<rect x="313.5" y="303.4" class="st2" width="158.7" height="7.7"/>
<rect x="315.1" y="325" class="st0" width="129.3" height="7.7"/>
<rect x="313.5" y="348.7" class="st0" width="75.5" height="7.7"/>
<rect x="313.5" y="371.9" class="st2" width="114" height="7.7"/>
<rect x="266.6" y="278.3" class="st0" width="12.6" height="12.6"/>
<rect x="266.6" y="301" class="st2" width="12.6" height="12.6"/>
<rect x="266.6" y="322.6" class="st0" width="12.6" height="12.6"/>
<rect x="266.6" y="346.3" class="st0" width="12.6" height="12.6"/>
<rect x="266.6" y="369.4" class="st2" width="12.6" height="12.6"/>
<rect x="313.5" y="395.2" class="st0" width="102.8" height="7.7"/>
<rect x="313.5" y="417.8" class="st2" width="158.7" height="7.7"/>
<rect x="315.1" y="439.4" class="st0" width="129.3" height="7.7"/>
<rect x="313.5" y="463.1" class="st0" width="75.5" height="7.7"/>
<rect x="313.5" y="486.3" class="st0" width="114" height="7.7"/>
<rect x="266.6" y="392.7" class="st0" width="12.6" height="12.6"/>
<rect x="266.6" y="415.4" class="st2" width="12.6" height="12.6"/>
<rect x="266.6" y="437" class="st0" width="12.6" height="12.6"/>
<rect x="266.6" y="460.7" class="st0" width="12.6" height="12.6"/>
<rect x="266.6" y="483.8" class="st0" width="12.6" height="12.6"/>
<path class="st2" d="M157,64.3c-18.1,0-32.7,14.6-32.7,32.7s14.6,32.7,32.7,32.7S189.7,115,189.7,97C189.6,78.9,175,64.3,157,64.3z
	 M157,74.1c5.4,0,9.8,4.4,9.8,9.8c0,5.4-4.4,9.8-9.8,9.8c-5.4,0-9.8-4.4-9.8-9.8l0,0C147.2,78.5,151.6,74.1,157,74.1z M157,121.3
	c-7.9,0-15.2-4-19.6-10.5c0.2-6.5,13.1-10.1,19.6-10.1c6.5,0,19.5,3.6,19.6,10.1C172.2,117.4,164.8,121.3,157,121.3z"/>
<rect x="-44.4" y="614.3" class="st3" width="976.8" height="2.5"/>
<path class="st4" d="M744.2,196.4c0,0,11.2,23.6,18.6,26.1l-21.1,32.3l-17.4-21.1c0,0,1.2-14.9-2.5-21.1
	C718.2,206.3,744.2,196.4,744.2,196.4z"/>
<circle class="st4" cx="726.9" cy="193.9" r="23.6"/>
<polygon class="st4" points="694.6,362.6 700.8,380 708.2,371.3 702,351.5 "/>
<path class="st5" d="M712,353.9c0,0-7.4,31-3.7,45.9c3.7,14.9,14.9,116.6,14.9,116.6l7.4,80.6l29.8,2.5l-3.7-94.3l3.7-81.9
	l21.1,79.4v96.8l36,1.2l-3.7-125.3c0,0,2.5-96.8-13.6-109.2c-16.1-12.4-18.6-14.9-18.6-14.9L712,353.9z"/>
<path class="st5" d="M736.8,595.8l-2.5,8.7l-3.7,11.2c0,0-11.2,22.3,7.4,18.6c18.6-3.7,16.1-12.4,16.1-12.4s6.2-3.7,5-5
	c-1.2-1.2-1.2-19.8-1.2-19.8L736.8,595.8z"/>
<path class="st5" d="M808.7,595.8l2.5,8.7l3.7,11.2c0,0,11.2,22.3-7.4,18.6c-18.6-3.7-16.1-12.4-16.1-12.4s-6.2-3.7-5-5
	c1.2-1.2,1.2-19.8,1.2-19.8L808.7,595.8z"/>
<path class="st0" d="M741.7,239.8l15.2-22.3l28.2,14.9l3.7,129c0,0-16.1-9.9-40.9,2.5c-24.8,12.4-40.9,3.7-40.9,3.7l14.9-55.8
	l-6.2-74.4l8.9-8.1L741.7,239.8z"/>
<path class="st5" d="M724.6,226.9l-5.2,4.2c0,0-32.3,16.1-33.5,27.3l22.3,60.8c0,0,6.2,13.6,1.2,18.6c-5,5-9.9,17.4-8.7,23.6
	c1.2,6.2-7.4,32.3,2.5,32.3s33.5-59.5,32.3-83.1C734.3,286.9,733.4,225.2,724.6,226.9z"/>
<path class="st5" d="M697.1,250.9l-7.6,0.8c0,0-7.2,5.4-7.2,17.8c0,12.4-1.2,49.6-1.2,49.6s-2.5,18.6,5,32.3s8.7,17.4,8.7,17.4
	l12.4-14.9v-31l5-19.8L697.1,250.9z"/>
<path class="st5" d="M753.2,212.3l12.1,5.1c0,0,42.2,11.2,48.4,29.8l-17.4,43.4c0,0,12.4,79.4,8.7,79.4h-3.7c0,0,9.9,7.4,3.7,9.9
	s-21.1,22.3-24.8,13.6c-3.7-8.7-26.1-111.7-23.6-134C759.1,237.3,751,214.7,753.2,212.3z"/>
<path class="st5" d="M736.2,163.5V161H730c0,0-9.9-6.2-18.6,1.2c-8.7,7.4-12.4,11.2-12.4,11.2l-3.7,5l3.7,1.2l-3.7,3.7h3.7l-2.5,3.7
	l7,9.3c0,0-0.8-9.3,6.7-9.3c7.4,0,16.1-9.9,16.1-9.9l18.6,13.6c0,0-1.2-7.4,3.1-7.4C747.9,183.4,749.8,164.7,736.2,163.5z"/>
<path class="st4" d="M822.4,362.6l-2.5,26.1c0,0,0,38.5-13.6,34.7c-13.6-3.7-2.5-36-2.5-36l1.9-23.3L822.4,362.6z"/>
<path class="st5" d="M795.1,241c0,0,16.1-6.2,21.1,12.4s11.2,55.8,11.2,55.8c5.2,13.2,5.2,27.8,0,40.9l-3.7,18.6l-21.1-2.5l-5-42.2
	l-5-53.3L795.1,241z"/>
</svg>
